<svg width="30" height="30" viewBox="0 0 30 30" fill="none" xmlns="http://www.w3.org/2000/svg">
<g clip-path="url(#clip0)">
<path d="M25.8376 4.617C23.0062 1.66152 19.0885 -0.00640698 14.9955 0.00112403C6.72407 -0.00929386 0.0102467 6.68759 -0.000171231 14.9591C-0.00531742 19.049 1.66242 22.9632 4.61571 25.7926C4.6243 25.8012 4.6275 25.814 4.63604 25.8215C4.72277 25.9051 4.81703 25.9758 4.9049 26.0561C5.14589 26.2703 5.38688 26.4921 5.64074 26.6988C5.77674 26.8059 5.91813 26.913 6.05739 27.0115C6.29732 27.1904 6.53724 27.3692 6.78783 27.5342C6.95816 27.6414 7.13382 27.7484 7.30835 27.8555C7.53968 27.9948 7.77 28.1351 8.00886 28.2625C8.21132 28.3697 8.41798 28.4617 8.62364 28.5592C8.84857 28.6663 9.07029 28.7734 9.30055 28.8698C9.53081 28.9662 9.7622 29.0412 9.99566 29.1247C10.2291 29.2082 10.4305 29.2854 10.6544 29.3539C10.9072 29.43 11.1664 29.4888 11.4234 29.552C11.6376 29.6045 11.8454 29.6645 12.0661 29.7074C12.3617 29.7663 12.6616 29.8038 12.9615 29.8445C13.1468 29.8702 13.3278 29.9066 13.5152 29.9248C14.0058 29.973 14.5006 29.9998 14.9997 29.9998C15.4988 29.9998 15.9937 29.973 16.4842 29.9248C16.6716 29.9066 16.8526 29.8702 17.0379 29.8445C17.3378 29.8038 17.6377 29.7663 17.9333 29.7074C18.1475 29.6645 18.3618 29.6002 18.576 29.552C18.833 29.4888 19.0922 29.4299 19.345 29.3539C19.5689 29.2854 19.7852 29.2018 20.0037 29.1247C20.2223 29.0476 20.4707 28.964 20.6989 28.8698C20.927 28.7755 21.1508 28.6652 21.3758 28.5592C21.5814 28.4617 21.7881 28.3696 21.9905 28.2625C22.2294 28.1351 22.4597 27.9947 22.6911 27.8555C22.8656 27.7484 23.0413 27.651 23.2116 27.5342C23.4622 27.3693 23.7021 27.1904 23.942 27.0115C24.0813 26.9044 24.2226 26.808 24.3587 26.6988C24.6125 26.4953 24.8535 26.2789 25.0945 26.0561C25.1823 25.9758 25.2766 25.9051 25.3634 25.8215C25.3719 25.8141 25.3752 25.8012 25.3837 25.7926C31.3567 20.0704 31.5598 10.5898 25.8376 4.617ZM23.4303 24.6712C23.2354 24.8426 23.034 25.0054 22.8305 25.1628C22.7106 25.255 22.5906 25.346 22.4674 25.4338C22.2735 25.5742 22.0765 25.707 21.8761 25.8344C21.7305 25.9276 21.5816 26.0175 21.4316 26.1054C21.2431 26.2125 21.0514 26.3196 20.8575 26.4267C20.6861 26.5145 20.5115 26.5971 20.3359 26.6784C20.1603 26.7598 19.9664 26.8466 19.7768 26.9226C19.5872 26.9987 19.3859 27.0704 19.1877 27.1368C19.0067 27.199 18.8257 27.2632 18.6425 27.3178C18.4283 27.3821 18.2045 27.4346 17.9827 27.4882C17.8092 27.5288 17.6379 27.5749 17.4622 27.6092C17.2084 27.6585 16.9492 27.6928 16.6889 27.7281C16.5411 27.7474 16.3944 27.7741 16.2455 27.7891C15.8341 27.8287 15.4175 27.8523 14.9966 27.8523C14.5756 27.8523 14.159 27.8288 13.7477 27.7891C13.5988 27.7741 13.4521 27.7474 13.3042 27.7281C13.044 27.6928 12.7848 27.6585 12.5309 27.6092C12.3553 27.575 12.1839 27.5289 12.0104 27.4882C11.7887 27.4346 11.568 27.381 11.3506 27.3178C11.1675 27.2632 10.9864 27.199 10.8054 27.1368C10.6073 27.0683 10.4091 26.9986 10.2163 26.9226C10.0235 26.8466 9.84147 26.763 9.65721 26.6784C9.47295 26.5939 9.30695 26.5146 9.13562 26.4267C8.94176 26.3261 8.75004 26.22 8.56151 26.1054C8.41158 26.0176 8.26266 25.9276 8.11699 25.8344C7.91673 25.707 7.71961 25.5742 7.52575 25.4338C7.40255 25.346 7.28262 25.255 7.16263 25.1628C6.9591 25.0054 6.75777 24.8415 6.56285 24.6712C6.51571 24.6359 6.47285 24.5909 6.42685 24.5501C6.47473 20.9066 8.81543 17.6893 12.2675 16.5224C13.9935 17.3435 15.9975 17.3435 17.7235 16.5224C21.1755 17.6893 23.5162 20.9065 23.5641 24.5501C23.5191 24.5909 23.4763 24.6316 23.4303 24.6712ZM11.2606 8.58885C12.4203 6.52636 15.0323 5.79454 17.0948 6.95425C19.1573 8.11396 19.8891 10.726 18.7294 12.7885C18.3447 13.4728 17.7792 14.0383 17.0948 14.4231C17.0895 14.4231 17.083 14.4231 17.0766 14.4295C16.7926 14.5876 16.4924 14.7148 16.1812 14.8087C16.1255 14.8248 16.0741 14.8462 16.0152 14.8601C15.9081 14.888 15.7956 14.9072 15.6853 14.9265C15.4775 14.9628 15.2674 14.9839 15.0566 14.9897H14.9344C14.7236 14.9839 14.5134 14.9628 14.3057 14.9265C14.1986 14.9072 14.0851 14.888 13.9759 14.8601C13.9191 14.8462 13.8687 14.8248 13.8099 14.8087C13.4986 14.7148 13.1985 14.5877 12.9144 14.4295L12.8952 14.4231C10.8327 13.2634 10.1008 10.6513 11.2606 8.58885ZM25.4642 22.4263C24.7769 19.2204 22.6658 16.5025 19.7297 15.0434C22.1299 12.4288 21.956 8.36349 19.3414 5.96329C16.7269 3.5631 12.6616 3.73694 10.2614 6.35152C8.00497 8.80951 8.00497 12.5854 10.2614 15.0434C7.32523 16.5026 5.21417 19.2204 4.52684 22.4263C0.419682 16.641 1.78003 8.62161 7.56529 4.51445C13.3505 0.407296 21.3699 1.76765 25.4771 7.5529C27.021 9.72767 27.8498 12.3291 27.8485 14.9962C27.8485 17.661 27.0148 20.259 25.4642 22.4263Z" fill="white"/>
</g>
<defs>
<clipPath id="clip0">
<rect width="30" height="30" fill="white"/>
</clipPath>
</defs>
</svg>
